<svg width="36" height="36" viewBox="0 0 36 36" fill="none" xmlns="http://www.w3.org/2000/svg">
<path d="M11.6261 6.907C11.5141 7.019 11.4291 7.154 11.3581 7.302L11.3501 7.294L0.134123 32.56L0.145123 32.571C-0.0628766 32.974 0.285123 33.794 0.998123 34.508C1.71112 35.221 2.53112 35.569 2.93412 35.361L2.94412 35.371L28.2101 24.154L28.2021 24.145C28.3491 24.075 28.4841 23.99 28.5971 23.876C30.1591 22.314 27.6261 17.249 22.9411 12.563C18.2541 7.877 13.1891 5.345 11.6261 6.907Z" fill="#DD2E44"/>
<path d="M13.0001 11.419L0.416123 31.925L0.134123 32.56L0.145123 32.571C-0.0628766 32.974 0.285123 33.794 0.998123 34.508C1.23012 34.74 1.47112 34.916 1.70712 35.065L17.0001 16.419L13.0001 11.419Z" fill="#EA596E"/>
<path d="M23.0122 12.485C27.6822 17.157 30.2752 22.137 28.8012 23.609C27.3282 25.083 22.3482 22.491 17.6752 17.821C13.0042 13.149 10.4122 8.16699 11.8852 6.69399C13.3592 5.22099 18.3392 7.81299 23.0122 12.485Z" fill="#A0041E"/>
<path d="M18.5898 13.028C18.3908 13.189 18.1308 13.273 17.8558 13.243C16.9878 13.149 16.2578 12.847 15.7468 12.37C15.2058 11.865 14.9388 11.187 15.0118 10.508C15.1398 9.316 16.3358 8.222 18.3748 8.442C19.1678 8.527 19.5218 8.272 19.5338 8.15C19.5478 8.029 19.2568 7.704 18.4638 7.618C17.5958 7.524 16.8658 7.222 16.3538 6.745C15.8128 6.24 15.5448 5.562 15.6188 4.883C15.7488 3.691 16.9438 2.597 18.9808 2.818C19.5588 2.88 19.8638 2.761 19.9928 2.684C20.0958 2.621 20.1368 2.561 20.1408 2.526C20.1528 2.405 19.8658 2.08 19.0708 1.994C18.5218 1.934 18.1238 1.442 18.1848 0.891997C18.2438 0.342997 18.7348 -0.0540027 19.2858 0.00599734C21.3228 0.224997 22.2588 1.548 22.1298 2.741C21.9998 3.935 20.8048 5.027 18.7658 4.808C18.1878 4.745 17.8858 4.865 17.7558 4.942C17.6528 5.004 17.6108 5.065 17.6068 5.099C17.5938 5.221 17.8828 5.545 18.6778 5.631C20.7148 5.851 21.6508 7.173 21.5218 8.366C21.3928 9.558 20.1978 10.652 18.1598 10.431C17.5818 10.369 17.2778 10.489 17.1478 10.565C17.0438 10.629 17.0038 10.689 16.9998 10.723C16.9868 10.844 17.2758 11.169 18.0698 11.255C18.6178 11.315 19.0168 11.808 18.9558 12.357C18.9278 12.631 18.7888 12.868 18.5898 13.028Z" fill="#AA8DD8"/>
<path d="M30.6612 22.276C32.6342 21.719 33.9952 22.599 34.3192 23.754C34.6432 24.908 33.9412 26.369 31.9692 26.924C31.1992 27.14 30.9682 27.508 30.9992 27.625C31.0332 27.743 31.4242 27.937 32.1922 27.72C34.1642 27.165 35.5252 28.045 35.8492 29.199C36.1752 30.354 35.4712 31.813 33.4982 32.369C32.7292 32.585 32.4972 32.954 32.5312 33.071C32.5642 33.188 32.9542 33.382 33.7232 33.166C34.2532 33.017 34.8072 33.326 34.9562 33.857C35.1042 34.389 34.7952 34.941 34.2632 35.091C32.2922 35.646 30.9302 34.768 30.6042 33.612C30.2802 32.458 30.9832 30.999 32.9572 30.443C33.7272 30.226 33.9582 29.859 33.9242 29.741C33.8922 29.624 33.5022 29.429 32.7342 29.645C30.7602 30.201 29.4002 29.323 29.0752 28.166C28.7502 27.012 29.4532 25.553 31.4262 24.996C32.1942 24.781 32.4252 24.411 32.3932 24.295C32.3592 24.177 31.9702 23.983 31.2012 24.199C30.6692 24.349 30.1182 24.039 29.9682 23.508C29.8192 22.978 30.1292 22.426 30.6612 22.276Z" fill="#77B255"/>
<path d="M23.0008 19.579C22.7068 19.579 22.4168 19.45 22.2188 19.204C21.8738 18.772 21.9448 18.143 22.3748 17.798C22.5928 17.623 27.7928 13.539 35.1418 14.59C35.6888 14.668 36.0688 15.174 35.9908 15.721C35.9128 16.267 35.4108 16.651 34.8588 16.569C28.3658 15.647 23.6718 19.323 23.6258 19.36C23.4398 19.508 23.2198 19.579 23.0008 19.579Z" fill="#AA8DD8"/>
<path d="M5.75397 15.419C5.65897 15.419 5.56197 15.405 5.46597 15.377C4.93697 15.218 4.63697 14.661 4.79597 14.132C5.92897 10.359 6.95597 4.33797 5.69397 2.76797C5.55297 2.58997 5.33997 2.41497 4.85197 2.45197C3.91397 2.52397 4.00297 4.50297 4.00397 4.52297C4.04597 5.07397 3.63197 5.55397 3.08197 5.59497C2.52297 5.62897 2.05097 5.22297 2.00997 4.67197C1.90697 3.29297 2.33597 0.636975 4.70197 0.457975C5.75797 0.377975 6.63497 0.744974 7.25397 1.51497C9.62497 4.46597 7.21797 13.021 6.71197 14.707C6.58197 15.14 6.18397 15.419 5.75397 15.419Z" fill="#77B255"/>
<path d="M25.5 10.419C26.3284 10.419 27 9.74743 27 8.91901C27 8.09058 26.3284 7.41901 25.5 7.41901C24.6716 7.41901 24 8.09058 24 8.91901C24 9.74743 24.6716 10.419 25.5 10.419Z" fill="#5C913B"/>
<path d="M2 19.419C3.10457 19.419 4 18.5236 4 17.419C4 16.3144 3.10457 15.419 2 15.419C0.89543 15.419 0 16.3144 0 17.419C0 18.5236 0.89543 19.419 2 19.419Z" fill="#9266CC"/>
<path d="M32.5 20.419C33.3284 20.419 34 19.7474 34 18.919C34 18.0906 33.3284 17.419 32.5 17.419C31.6716 17.419 31 18.0906 31 18.919C31 19.7474 31.6716 20.419 32.5 20.419Z" fill="#5C913B"/>
<path d="M23.5 32.419C24.3284 32.419 25 31.7474 25 30.919C25 30.0906 24.3284 29.419 23.5 29.419C22.6716 29.419 22 30.0906 22 30.919C22 31.7474 22.6716 32.419 23.5 32.419Z" fill="#5C913B"/>
<path d="M28 5.41901C29.1046 5.41901 30 4.52358 30 3.41901C30 2.31444 29.1046 1.41901 28 1.41901C26.8954 1.41901 26 2.31444 26 3.41901C26 4.52358 26.8954 5.41901 28 5.41901Z" fill="#FFCC4D"/>
<path d="M32.5 9.41901C33.3284 9.41901 34 8.74743 34 7.91901C34 7.09058 33.3284 6.41901 32.5 6.41901C31.6716 6.41901 31 7.09058 31 7.91901C31 8.74743 31.6716 9.41901 32.5 9.41901Z" fill="#FFCC4D"/>
<path d="M29.5 13.419C30.3284 13.419 31 12.7474 31 11.919C31 11.0906 30.3284 10.419 29.5 10.419C28.6716 10.419 28 11.0906 28 11.919C28 12.7474 28.6716 13.419 29.5 13.419Z" fill="#FFCC4D"/>
<path d="M7.5 24.419C8.32843 24.419 9 23.7474 9 22.919C9 22.0906 8.32843 21.419 7.5 21.419C6.67157 21.419 6 22.0906 6 22.919C6 23.7474 6.67157 24.419 7.5 24.419Z" fill="#FFCC4D"/>
</svg>
