<svg width="67" height="67" viewBox="0 0 67 67" fill="none" xmlns="http://www.w3.org/2000/svg">
<rect width="67" height="67" rx="4" fill="#2435A1"/>
<g clip-path="url(#clip0_498_1714)">
<path d="M32.4196 44.9365C31.827 44.1267 31.0731 43.4835 30.2282 43.1095C30.395 43.0146 30.5508 42.9043 30.6956 42.7796C31.3123 42.2467 31.7041 41.4578 31.7041 40.5763C31.7041 38.9699 30.4092 37.668 28.8115 37.668C27.2137 37.668 25.9189 38.9699 25.9189 40.5763C25.9189 41.5064 26.3545 42.3327 27.0316 42.8656C27.1819 42.9837 27.3432 43.0874 27.5155 43.1735C25.6116 44.0969 24.1873 46.3896 24.1543 48.8224C24.1522 48.9967 24.2246 49.1666 24.3519 49.2847C26.2909 51.0864 29.0244 51.5387 31.3617 50.6417C31.117 50.378 30.9754 50.0327 30.9798 49.6708C31.004 47.9563 31.5439 46.3046 32.4196 44.9387V44.9365Z" fill="white"/>
<path d="M47.4849 43.1095C47.6517 43.0146 47.8075 42.9042 47.9524 42.7796C48.5691 42.2467 48.9608 41.4578 48.9608 40.5763C48.9608 38.9699 47.666 37.668 46.0682 37.668C44.4705 37.668 43.1756 38.9699 43.1756 40.5763C43.1756 41.5064 43.6113 42.3327 44.2883 42.8656C44.4387 42.9837 44.6 43.0874 44.7723 43.1735C43.9855 43.5552 43.2832 44.1742 42.7246 44.9376C43.6003 46.3035 44.1402 47.9552 44.1643 49.6697C44.1687 50.0327 44.0272 50.378 43.7825 50.6417C46.1198 51.5387 48.8533 51.0875 50.7923 49.2847C50.9196 49.1666 50.9931 48.9967 50.9898 48.8224C50.9558 46.33 49.459 43.9866 47.4849 43.1106V43.1095Z" fill="white"/>
<path d="M39.2888 42.6132C39.5028 42.5017 39.7047 42.3705 39.8913 42.2204C40.7143 41.5562 41.2421 40.539 41.2421 39.3959C41.2421 37.3957 39.6301 35.7749 37.6406 35.7749C35.6511 35.7749 34.0391 37.3957 34.0391 39.3959C34.0391 40.5125 34.5428 41.511 35.334 42.1752C35.5172 42.3296 35.7159 42.4653 35.9265 42.5812C33.4904 43.6878 31.6513 46.5928 31.6085 49.6776C31.6052 49.895 31.6963 50.1057 31.8554 50.2536C35.0805 53.249 40.0657 53.249 43.2897 50.2536C43.4478 50.1057 43.5388 49.895 43.5366 49.6776C43.4949 46.6226 41.6909 43.743 39.2899 42.6132H39.2888Z" fill="white"/>
<path d="M52.1172 14.5H19.3044C19.0926 14.5 18.9214 14.6721 18.9214 14.8851V17.3675C18.9214 17.5804 19.0926 17.7525 19.3044 17.7525H20.2942C20.506 17.7525 20.6771 17.5804 20.6771 17.3675V16.6503C20.6771 16.4374 20.8483 16.2653 21.0601 16.2653H50.3614C50.5732 16.2653 50.7444 16.4374 50.7444 16.6503V32.8711C50.7444 33.0841 50.5732 33.2562 50.3614 33.2562H24.5365C24.3247 33.2562 24.1535 33.4283 24.1535 33.6412V34.6364C24.1535 34.8493 24.3247 35.0215 24.5365 35.0215H52.1172C52.329 35.0215 52.5002 34.8493 52.5002 34.6364V14.8851C52.5002 14.6721 52.329 14.5 52.1172 14.5Z" fill="white"/>
<path d="M20.7859 26.357C22.6557 25.9133 23.8138 24.0296 23.3724 22.1497C22.9311 20.2697 21.0576 19.1054 19.1878 19.5491C17.318 19.9928 16.16 21.8765 16.6013 23.7565C17.0426 25.6364 18.9161 26.8007 20.7859 26.357Z" fill="white"/>
<path d="M30.2184 27.2651H16.1296C15.2297 27.2651 14.5 27.9988 14.5 28.9035V37.8006C14.5 38.8752 15.3658 39.7457 16.4346 39.7457H17.5166V41.607V47.6917C17.5166 48.5964 18.2463 49.3301 19.1462 49.3301H20.8251C21.7249 49.3301 22.4547 48.5964 22.4547 47.6917V30.2904H30.2173C31.048 30.2904 31.7217 29.613 31.7217 28.7778C31.7217 27.9426 31.048 27.2651 30.2173 27.2651H30.2184Z" fill="white"/>
</g>
<defs>
<clipPath id="clip0_498_1714">
<rect width="38" height="38" fill="white" transform="translate(14.5 14.5)"/>
</clipPath>
</defs>
</svg>
