<svg width="67" height="67" viewBox="0 0 67 67" fill="none" xmlns="http://www.w3.org/2000/svg">
<rect width="67" height="67" rx="4" fill="#FF6551"/>
<g clip-path="url(#clip0_498_1708)">
<path d="M33.4999 25.7C35.473 25.7 37.0725 24.0882 37.0725 22.1C37.0725 20.1118 35.473 18.5 33.4999 18.5C31.5268 18.5 29.9272 20.1118 29.9272 22.1C29.9272 24.0882 31.5268 25.7 33.4999 25.7Z" fill="white"/>
<path d="M48.9813 26.9002C50.9544 26.9002 52.554 25.2884 52.554 23.3002C52.554 21.312 50.9544 19.7002 48.9813 19.7002C47.0082 19.7002 45.4087 21.312 45.4087 23.3002C45.4087 25.2884 47.0082 26.9002 48.9813 26.9002Z" fill="white"/>
<path d="M50.7676 28.0998H47.1949C47.0163 28.0998 46.8496 28.1838 46.7424 28.3158L43.9439 31.6998H41.2406C40.2521 31.6998 39.4542 32.5038 39.4542 33.4998V30.5118C39.4542 29.1798 38.5611 27.9918 37.2988 27.6318L34.8575 26.9238C34.6431 26.8638 34.4287 26.9238 34.2739 27.0798L33.4999 27.8598L32.7258 27.0798C32.571 26.9238 32.3566 26.8638 32.1422 26.9238L29.701 27.6318C28.4267 28.0038 27.5455 29.1798 27.5455 30.5118V33.4998C27.5455 32.5038 26.7476 31.6998 25.7591 31.6998H23.0558L20.2573 28.3158C20.1501 28.1838 19.9715 28.0998 19.8048 28.0998H16.2321C15.2437 28.0998 14.4458 28.9038 14.4458 29.8998V38.2998C14.4458 39.9558 15.7796 41.2998 17.423 41.2998H21.7578L24.0086 48.0918C24.0919 48.3318 24.3182 48.4998 24.5683 48.4998H28.1409C28.3195 48.4998 28.4863 48.4158 28.6053 48.2718C28.7244 48.1278 28.7602 47.9478 28.7244 47.7678L26.7595 38.8518C26.4499 37.4718 25.259 36.4998 23.8537 36.4998H20.4002V34.3878L22.5557 35.2638C22.6271 35.2878 22.6986 35.3118 22.7819 35.3118H44.2178C44.2892 35.3118 44.3726 35.2998 44.444 35.2638L46.5995 34.3878V36.4998H43.146C41.7407 36.4998 40.5498 37.4718 40.2402 38.8518L38.2753 47.7678C38.2395 47.9478 38.2753 48.1278 38.3944 48.2718C38.5015 48.4158 38.6802 48.4998 38.8588 48.4998H42.4314C42.6815 48.4998 42.9197 48.3318 42.9911 48.0918L45.2419 41.2998H49.5767C51.2201 41.2998 52.5539 39.9558 52.5539 38.2998V29.8998C52.5539 28.9038 51.756 28.0998 50.7676 28.0998Z" fill="white"/>
<path d="M18.0184 26.9002C19.9915 26.9002 21.5911 25.2884 21.5911 23.3002C21.5911 21.312 19.9915 19.7002 18.0184 19.7002C16.0453 19.7002 14.4458 21.312 14.4458 23.3002C14.4458 25.2884 16.0453 26.9002 18.0184 26.9002Z" fill="white"/>
</g>
<defs>
<clipPath id="clip0_498_1708">
<rect width="38.1081" height="30" fill="white" transform="translate(14.4458 18.5)"/>
</clipPath>
</defs>
</svg>
