<svg width="67" height="67" viewBox="0 0 67 67" fill="none" xmlns="http://www.w3.org/2000/svg">
<rect width="67" height="67" rx="4" fill="#FFC652"/>
<path d="M48.2062 13.9638L48.2014 13.9639C47.3591 13.9725 46.5338 14.2018 45.8079 14.6291C45.082 15.0564 44.4809 15.6666 44.0646 16.3988C43.6483 17.1311 43.4314 17.9597 43.4355 18.802C43.439 19.5119 43.5994 20.2106 43.9032 20.8487L37.8181 26.7307C36.8427 26.0497 35.6855 25.6682 34.4897 25.6392C33.2861 25.61 32.1043 25.9392 31.0926 26.5802L26.6989 22.3809C26.9839 21.755 27.0734 21.054 26.9502 20.3709C26.8026 19.553 26.3602 18.8176 25.7068 18.304C25.0534 17.7904 24.2343 17.5343 23.4047 17.5841C22.5751 17.6339 21.7926 17.9862 21.2053 18.5743C20.6181 19.1624 20.2669 19.9454 20.2182 20.7751C20.1696 21.6048 20.4269 22.4235 20.9414 23.0762C21.4559 23.7289 22.1919 24.1702 23.01 24.3166C23.699 24.4399 24.4059 24.3468 25.0354 24.0553L29.384 28.2115C28.6459 29.2672 28.2638 30.5359 28.3011 31.8316C28.3382 33.1166 28.7856 34.3513 29.571 35.3581L21.522 42.8777C20.0721 41.8317 18.2544 41.8287 16.7887 42.5092C15.1991 43.2472 13.9545 44.821 14.0012 46.8401L14.0015 46.8464C14.2271 53.1627 23.3604 53.1795 23.5879 46.8463L23.5883 46.8373L23.5883 46.8282C23.5879 46.0737 23.4084 45.3322 23.0669 44.6639L31.3627 36.9138C31.9615 37.2549 32.6145 37.4903 33.293 37.6097V43.5418C27.9623 44.8956 28.6882 52.9019 34.463 53.0357L34.463 53.0359L34.4743 53.0359C35.6881 53.0367 36.8576 52.5798 37.7493 51.7562C38.641 50.9327 39.1893 49.8032 39.2848 48.5931C39.3804 47.3831 39.016 46.1815 38.2645 45.2283C37.6023 44.3882 36.6824 43.7955 35.6527 43.5368V37.5511C36.4276 37.3797 37.1608 37.0566 37.8102 36.6007L42.2719 41.052C41.949 41.6537 41.8128 42.3419 41.8869 43.0274C41.9763 43.8557 42.3664 44.6226 42.9834 45.1826C43.6003 45.7426 44.4012 46.0569 45.2344 46.066C46.0675 46.075 46.875 45.7783 47.504 45.2318C48.133 44.6854 48.5398 43.9272 48.6472 43.101C48.7547 42.2748 48.5554 41.4378 48.0871 40.7486C47.6189 40.0595 46.9141 39.566 46.1064 39.3617C45.4196 39.1879 44.699 39.2334 44.044 39.4867L39.436 34.8893C40.0495 33.9285 40.3781 32.8098 40.3785 31.6638C40.3789 30.52 40.0523 29.4031 39.4417 28.4431L45.4281 22.6565C45.9305 23.0146 46.4985 23.2731 47.1015 23.4163C47.8544 23.5952 48.6394 23.589 49.3894 23.3984C50.1394 23.2077 50.832 22.8382 51.4081 22.3215C51.9841 21.8047 52.4264 21.1562 52.6972 20.4312C52.9679 19.7063 53.0591 18.9266 52.9628 18.1588C52.8665 17.3909 52.5856 16.6579 52.1442 16.0222C51.7028 15.3866 51.1141 14.8674 50.4283 14.5089C49.7424 14.1504 48.98 13.9634 48.2062 13.9638ZM14.501 46.8286L14.5011 46.8286L14.501 46.8286ZM22.881 21.7006C22.6875 21.5093 22.5767 21.2499 22.5722 20.978C22.5767 20.7061 22.6875 20.4466 22.881 20.2553C23.0759 20.0627 23.3388 19.9547 23.6128 19.9547C23.8867 19.9547 24.1497 20.0627 24.3445 20.2554C24.538 20.4467 24.6488 20.7061 24.6533 20.978C24.6488 21.2499 24.538 21.5093 24.3445 21.7006C24.1496 21.8932 23.8867 22.0013 23.6127 22.0013C23.3387 22.0013 23.0758 21.8932 22.881 21.7006ZM34.3385 27.9814C35.3142 27.9826 36.2496 28.3708 36.9395 29.0607C37.6274 29.7486 38.0153 30.6805 38.0188 31.6531C37.8329 36.5388 30.8355 36.5143 30.6584 31.6534C30.6618 30.6808 31.0497 29.7488 31.7376 29.0608C32.4275 28.3709 33.3628 27.9827 34.3385 27.9814ZM20.497 48.5415C20.0463 48.9962 19.4347 49.255 18.7947 49.262C18.1546 49.255 17.543 48.9962 17.0924 48.5415C16.6407 48.0857 16.3873 47.47 16.3873 46.8283C16.3873 46.1866 16.6407 45.5708 17.0924 45.1151C17.5431 44.6604 18.1547 44.4016 18.7947 44.3946C19.4347 44.4016 20.0464 44.6604 20.497 45.1151C20.9487 45.5709 21.2021 46.1866 21.2021 46.8283C21.2021 47.47 20.9487 48.0857 20.497 48.5415ZM36.2101 46.4868C36.6707 46.9433 36.9328 47.5628 36.9399 48.2111C36.9328 48.8594 36.6706 49.4789 36.21 49.9353C35.7483 50.3928 35.1246 50.6495 34.4747 50.6495C33.8247 50.6495 33.201 50.3928 32.7393 49.9353C32.2787 49.4788 32.0166 48.8593 32.0095 48.211C32.0166 47.5627 32.2788 46.9432 32.7394 46.4868C33.2011 46.0293 33.8247 45.7726 34.4747 45.7726C35.1247 45.7726 35.7484 46.0293 36.2101 46.4868ZM46.0071 41.917C46.2006 42.1084 46.3114 42.368 46.3158 42.64C46.3113 42.9119 46.2005 43.1714 46.0069 43.3627C45.8121 43.5554 45.5492 43.6634 45.2752 43.6634C45.0012 43.6634 44.7383 43.5553 44.5435 43.3627C44.35 43.1714 44.2391 42.9119 44.2346 42.64C44.2391 42.368 44.3498 42.1084 44.5434 41.917C44.7382 41.7243 45.0012 41.6162 45.2752 41.6162C45.5493 41.6162 45.8123 41.7243 46.0071 41.917ZM48.2065 21.191C47.5667 21.1837 46.9554 20.9248 46.505 20.4701C46.0535 20.0144 45.8002 19.3988 45.8002 18.7572C45.8002 18.1157 46.0535 17.5001 46.505 17.0444C46.9554 16.5897 47.5668 16.3308 48.2066 16.3236C48.8466 16.3306 49.4582 16.5894 49.9088 17.0441C50.3605 17.4999 50.6139 18.1156 50.6139 18.7573C50.6139 19.399 50.3605 20.0148 49.9088 20.4705C49.4581 20.9252 48.8466 21.184 48.2065 21.191Z" fill="white" stroke="white"/>
<rect x="45.5" y="16.4639" width="5" height="5" fill="white"/>
<rect x="42.5" y="40.4639" width="5" height="5" fill="white"/>
<rect x="31.5" y="45.4639" width="5" height="5" fill="white"/>
<rect x="16.5" y="44.4639" width="5" height="5" fill="white"/>
<rect x="21.5" y="18.4639" width="5" height="5" fill="white"/>
<rect x="30.5" y="27.4639" width="8" height="8" fill="white"/>
</svg>
